<?xml version="1.0" encoding="UTF-8"?>
<!DOCTYPE svg PUBLIC "-//W3C//DTD SVG 1.1//EN" "http://www.w3.org/Graphics/SVG/1.1/DTD/svg11.dtd">
<!-- Creator: CorelDRAW -->
<svg xmlns="http://www.w3.org/2000/svg" xml:space="preserve" width="25.1mm" height="15.1126mm" version="1.1" style="shape-rendering:geometricPrecision; text-rendering:geometricPrecision; image-rendering:optimizeQuality; fill-rule:evenodd; clip-rule:evenodd"
viewBox="0 0 151.17 91.02"
 xmlns:xlink="http://www.w3.org/1999/xlink"
 xmlns:xodm="http://www.corel.com/coreldraw/odm/2003">
 <defs>
  <style type="text/css">
   <![CDATA[
    .str0 {stroke:white;stroke-width:1.2;stroke-miterlimit:22.9256}
    .fil0 {fill:white;fill-rule:nonzero}
   ]]>
  </style>
 </defs>
 <g id="Слой_x0020_1">
  <metadata id="CorelCorpID_0Corel-Layer"/>
  <g id="_2005455333248">
   <path class="fil0" d="M130.37 0c3.04,0 5.51,2.47 5.51,5.51 0,3.04 -2.47,5.51 -5.51,5.51l-124.86 0c-3.04,0 -5.51,-2.47 -5.51,-5.51 0,-3.04 2.47,-5.51 5.51,-5.51l124.86 0z"/>
   <path class="fil0" d="M56.92 73.45c3.04,0 5.51,2.47 5.51,5.51 0,3.04 -2.47,5.51 -5.51,5.51l-51.41 0c-3.04,0 -5.51,-2.47 -5.51,-5.51 0,-3.04 2.47,-5.51 5.51,-5.51l51.41 0z"/>
   <path class="fil0" d="M49.58 36.72c3.04,0 5.51,2.47 5.51,5.51 0,3.04 -2.47,5.51 -5.51,5.51l-44.07 0c-3.04,0 -5.51,-2.47 -5.51,-5.51 0,-3.04 2.47,-5.51 5.51,-5.51l44.07 0z"/>
   <path class="fil0 str0" d="M104.59 81.22l3.27 -4.43 0 0 -3.27 4.43zm7.42 -45.55l-3.94 3.85c1.04,1.06 2.45,1.65 3.94,1.65 1.48,0 2.9,-0.6 3.94,-1.65l-3.94 -3.85zm7.42 45.55l3.27 4.43 0 0 -3.27 -4.43zm-7.42 3.69l0 -5.51 0 0 0 5.51zm-4.15 -8.12c-4.73,-3.48 -10.78,-8.43 -15.59,-13.93 -4.99,-5.7 -7.8,-11.03 -7.8,-15.37l-11.02 0c0,8.53 5.13,16.47 10.53,22.63 5.57,6.36 12.33,11.84 17.35,15.54l6.54 -8.87zm-23.39 -29.3c0,-8.14 3.63,-12.42 7.37,-13.82 3.8,-1.42 9.86,-0.66 16.24,5.86l7.87 -7.71c-8.49,-8.67 -18.96,-11.84 -27.97,-8.47 -9.07,3.39 -14.53,12.61 -14.53,24.14l11.02 0zm38.23 38.17c5.02,-3.7 11.78,-9.19 17.35,-15.54 5.39,-6.16 10.53,-14.1 10.53,-22.63l-11.02 0c0,4.35 -2.81,9.68 -7.8,15.37 -4.82,5.5 -10.87,10.45 -15.59,13.93l6.54 8.87zm27.87 -38.17c0,-11.53 -5.46,-20.75 -14.53,-24.14 -9.01,-3.37 -19.48,-0.2 -27.97,8.47l7.87 7.71c6.38,-6.52 12.44,-7.28 16.24,-5.86 3.74,1.4 7.37,5.68 7.37,13.82l11.02 0zm-49.25 38.17c2.88,2.12 6.1,4.76 10.69,4.76l0 -11.02c-0.11,0 -0.23,0.02 -0.74,-0.26 -0.72,-0.39 -1.62,-1.04 -3.41,-2.36l-6.54 8.87zm14.84 -8.87c-1.78,1.32 -2.69,1.96 -3.41,2.36 -0.51,0.27 -0.63,0.26 -0.74,0.26l0 11.02c4.59,0 7.81,-2.64 10.69,-4.76l-6.54 -8.87z"/>
  </g>
 </g>
</svg>
