<?xml version="1.0" encoding="UTF-8"?>
<!DOCTYPE svg PUBLIC "-//W3C//DTD SVG 1.1//EN" "http://www.w3.org/Graphics/SVG/1.1/DTD/svg11.dtd">
<!-- Creator: CorelDRAW -->
<svg xmlns="http://www.w3.org/2000/svg" xml:space="preserve" width="16.0159mm" height="12.0143mm" version="1.1" style="shape-rendering:geometricPrecision; text-rendering:geometricPrecision; image-rendering:optimizeQuality; fill-rule:evenodd; clip-rule:evenodd"
viewBox="0 0 83.46 62.61"
 xmlns:xlink="http://www.w3.org/1999/xlink"
 xmlns:xodm="http://www.corel.com/coreldraw/odm/2003">
 <defs>
  <style type="text/css">
   <![CDATA[
    .fil0 {fill:white;fill-rule:nonzero}
   ]]>
  </style>
 </defs>
 <g id="Слой_x0020_1">
  <metadata id="CorelCorpID_0Corel-Layer"/>
  <path class="fil0" d="M25.04 10.42c-2.3,0 -4.16,-1.86 -4.16,-4.16 0,-2.3 1.86,-4.16 4.16,-4.16l54.26 0c2.3,0 4.16,1.86 4.16,4.16 0,2.3 -1.86,4.16 -4.16,4.16l-54.26 -0zm0 25.04c-2.3,0 -4.16,-1.86 -4.16,-4.16 0,-2.3 1.86,-4.16 4.16,-4.16l54.26 0c2.3,0 4.16,1.86 4.16,4.16 0,2.3 -1.86,4.16 -4.16,4.16l-54.26 -0zm0 25.04c-2.3,0 -4.16,-1.86 -4.16,-4.16 0,-2.3 1.86,-4.16 4.16,-4.16l54.26 0c2.3,0 4.16,1.86 4.16,4.16 0,2.3 -1.86,4.16 -4.16,4.16l-54.26 -0zm-12.52 -54.25c0,1.73 -0.7,3.29 -1.83,4.43 -1.13,1.13 -2.7,1.83 -4.43,1.83 -1.73,0 -3.29,-0.7 -4.43,-1.83 -1.13,-1.13 -1.83,-2.7 -1.83,-4.43 0,-1.73 0.7,-3.29 1.83,-4.43 1.13,-1.13 2.7,-1.83 4.43,-1.83 1.73,0 3.29,0.7 4.43,1.83 1.13,1.13 1.83,2.7 1.83,4.43zm0 25.04c0,1.73 -0.7,3.29 -1.83,4.43 -1.13,1.13 -2.7,1.83 -4.43,1.83 -1.73,0 -3.29,-0.7 -4.43,-1.83 -1.13,-1.13 -1.83,-2.7 -1.83,-4.43 0,-1.73 0.7,-3.29 1.83,-4.43 1.13,-1.13 2.7,-1.83 4.43,-1.83 1.73,0 3.29,0.7 4.43,1.83 1.13,1.13 1.83,2.7 1.83,4.43zm0 25.04c0,1.73 -0.7,3.29 -1.83,4.43 -1.13,1.13 -2.7,1.83 -4.43,1.83 -1.73,0 -3.29,-0.7 -4.43,-1.83 -1.13,-1.13 -1.83,-2.7 -1.83,-4.43 0,-1.73 0.7,-3.29 1.83,-4.43 1.13,-1.13 2.7,-1.83 4.43,-1.83 1.73,0 3.29,0.7 4.43,1.83 1.13,1.13 1.83,2.7 1.83,4.43z"/>
 </g>
</svg>
