<?xml version="1.0" encoding="UTF-8"?>
<!DOCTYPE svg PUBLIC "-//W3C//DTD SVG 1.1//EN" "http://www.w3.org/Graphics/SVG/1.1/DTD/svg11.dtd">
<!-- Creator: CorelDRAW -->
<svg xmlns="http://www.w3.org/2000/svg" xml:space="preserve" width="58.9177mm" height="29.3137mm" version="1.1" fill= 'white' style="shape-rendering:geometricPrecision; text-rendering:geometricPrecision; image-rendering:optimizeQuality;  fill = rgb(255, 255, 255);; clip-rule:evenodd"
viewBox="0 0 3123.53 1554.07"
 xmlns:xlink="http://www.w3.org/1999/xlink"
 xmlns:xodm="http://www.corel.com/coreldraw/odm/2003">
 <defs>
  <style type="text/css">
   <![CDATA[
    .fil0 rgb(255, 255, 255);
    .fil1 rgb(255, 255, 255);
     fill: rgb(255, 255, 255);
   ]]>
   
  </style>
 </defs>
 <g id="Слой_x0020_1">
  <metadata id="CorelCorpID_0Corel-Layer"/>
  <path class="fil0" d="M274.66 730.11l229.46 0 0 -131.83c0,-36.79 -9.27,-63.45 -27.52,-79.96 -18.25,-16.51 -47.52,-24.63 -87.5,-24.63 -38.54,0 -67.22,8.69 -86.05,26.07 -18.84,17.1 -28.39,43.46 -28.39,78.52l0 131.83zm424.16 191.22l39.98 13.61c-28.97,79.68 -71.27,138.78 -126.9,177.31 -55.92,38.53 -127.48,57.65 -215.27,57.65 -120.52,0 -217,-31.87 -288.85,-95.9 -71.85,-64.03 -107.78,-149.21 -107.78,-255.54 0,-105.17 37.08,-192.67 111.54,-262.2 74.46,-69.53 168.33,-104.3 281.62,-104.3 104.01,0 186.29,28.69 246.55,86.34 60.26,57.37 90.4,135.88 90.4,235.55l0 8.4 -455.45 0 0 170.65c0,66.35 10.43,111.84 31,136.46 20.57,24.63 56.49,37.08 108.07,37.08 69.53,0 128.06,-17.09 175.57,-51.57 47.52,-34.19 84.02,-85.47 109.52,-153.55zm106.33 177.31l100.82 0 0 -1025.62 -111.25 0 0 -52.15c62.29,-1.74 122.84,-4.63 181.36,-8.4 58.81,-3.76 115.6,-7.82 169.78,-12.46l0 1098.64 109.52 0 0 52.15 -450.24 0 0 -52.15zm583.8 -920.17c0,-33.31 11.88,-61.71 35.93,-85.47 24.04,-23.76 52.73,-35.64 86.04,-35.64 32.74,0 60.85,11.59 83.73,35.05 22.89,23.47 34.19,52.15 34.19,86.05 0,33.61 -11.59,62.29 -34.77,86.34 -23.18,24.05 -51.28,35.92 -84.6,35.92 -33.61,0 -62,-11.88 -85.47,-35.92 -23.47,-24.05 -35.06,-52.73 -35.06,-86.34zm-97.35 972.32l0 -52.15 102.56 0 0 -573.66 -113 0 0.87 -52.15c62.87,-1.74 123.42,-4.35 181.95,-7.82 58.52,-3.48 115.31,-7.83 170.07,-13.04l0 646.67 107.78 0 0 52.15 -450.23 0zm589.01 -154.42l0 -473.12 -99.09 0 0 -52.15 99.09 0 0 -213.82c11.3,2.61 24.05,4.35 37.95,5.5 13.91,0.87 34.48,1.45 62.29,1.45 24.92,0 48.1,-0.58 69.82,-2.03 21.44,-1.16 42.59,-2.9 62.87,-4.93l0 213.82 139.07 0 0 52.15 -139.07 0 0 473.12c0,29.26 4.06,49.25 11.88,59.97 7.83,10.72 22.6,16.23 44.04,16.23 21.44,0 39.11,-8.99 53.02,-26.66 13.91,-17.68 22.02,-42.01 24.91,-72.43l46.94 0c-3.48,58.81 -27.23,106.04 -71.27,141.67 -44.33,35.35 -101.12,53.02 -170.94,53.02 -65.48,0 -110.67,-11.01 -135.01,-32.74 -24.34,-21.73 -36.51,-68.09 -36.51,-139.07zm778.78 -266.26l229.46 0 0 -131.83c0,-36.79 -9.27,-63.45 -27.52,-79.96 -18.25,-16.51 -47.52,-24.63 -87.5,-24.63 -38.54,0 -67.22,8.69 -86.05,26.07 -18.84,17.1 -28.39,43.46 -28.39,78.52l0 131.83zm424.16 191.22l39.98 13.61c-28.97,79.68 -71.27,138.78 -126.9,177.31 -55.92,38.53 -127.48,57.65 -215.27,57.65 -120.52,0 -217,-31.87 -288.85,-95.9 -71.85,-64.03 -107.78,-149.21 -107.78,-255.54 0,-105.17 37.08,-192.67 111.54,-262.2 74.46,-69.53 168.33,-104.3 281.62,-104.3 104.01,0 186.29,28.69 246.55,86.34 60.26,57.37 90.4,135.88 90.4,235.55l0 8.4 -455.45 0 0 170.65c0,66.35 10.43,111.84 31,136.46 20.57,24.63 56.49,37.08 108.07,37.08 69.53,0 128.06,-17.09 175.57,-51.57 47.52,-34.19 84.02,-85.47 109.52,-153.55z"/>
  <path class="fil1" d="M1037.67 1504.91c17.81,-40.63 31.17,-80.51 39.88,-119.84 8.91,-39.33 13.36,-77.91 13.36,-115.94 0,-9.83 0,-17.25 -0.19,-22.08 -0.19,-4.82 -0.56,-9.27 -0.93,-13.35l-34.14 32.1c-29.68,27.45 -60.85,55.09 -93.5,82.74 -32.65,27.83 -66.41,55.46 -101.66,82.92 22.45,20.59 48.23,37.1 77.54,49.16 29.13,12.24 62.34,20.22 99.62,24.3zm-197.75 -95.72c35.06,-26.16 68.64,-52.5 100.73,-79.4 32.1,-26.71 62.7,-53.8 91.64,-80.89l54.36 -51.01c-7.98,-57.7 -26.9,-102.59 -56.58,-135.05 -29.68,-32.47 -66.41,-48.6 -110.38,-48.6 -47.31,0 -86.82,17.62 -118.35,52.69 -31.54,35.06 -47.31,79.58 -47.31,133.01 0,35.62 7.23,70.86 21.52,105.74 14.28,34.87 35.8,69.38 64.37,103.51zm179.94 117.99c-33.77,-4.27 -65.48,-12.99 -94.98,-26.16 -29.5,-12.98 -57.88,-30.98 -84.96,-53.8 -50.46,36.36 -92.94,62.34 -127.81,77.92 -34.69,15.58 -66.78,23.37 -96.1,23.37 -35.62,0 -64,-9.65 -85.7,-29.13 -21.52,-19.29 -32.28,-44.89 -32.28,-76.43 0,-25.04 7.24,-45.82 21.52,-62.34 14.29,-16.51 31.91,-24.67 52.87,-24.67 14.47,0 26.34,4.45 35.43,13.54 9.09,9.09 13.55,20.78 13.55,35.24 0,12.43 -3.9,22.08 -11.32,29.31 -7.6,7.24 -17.99,10.95 -30.98,10.95 -6.12,0 -13.92,-1.11 -23.19,-3.53 -9.09,-2.41 -15.03,-3.53 -17.63,-3.53 -4.26,0 -7.42,1.11 -9.46,3.53 -2.04,2.41 -2.97,6.12 -2.97,11.13 0,19.66 8.35,35.62 25.04,48.23 16.69,12.43 38.77,18.74 66.23,18.74 27.09,0 57.51,-7.97 91.27,-23.75 33.76,-15.77 70.87,-39.33 111.31,-70.87 -32.28,-38.4 -56.21,-77.73 -71.98,-117.79 -15.77,-40.07 -23.75,-81.81 -23.75,-125.22 0,-66.41 16.69,-120.76 50.27,-163.06 33.57,-42.48 76.06,-63.63 127.44,-63.63 50.83,0 94.8,19.85 132.08,59.55 37.47,39.7 62.7,94.05 76.25,162.88l183.65 -167.89c113.72,-103.88 202.05,-175.26 264.73,-214.26 62.54,-38.91 -20.81,1.89 27.42,1.89 6.12,0 11.38,1.19 15.77,3.71 4.33,2.49 6.49,5.57 6.49,8.72 0,1.86 -20.41,24.86 -61.4,68.82 -41,43.97 59.33,30.67 23.03,80.1 -10.43,14.2 -26.71,35.99 -48.42,65.67 -149.89,205.92 -283.64,365.27 -401.07,478.24 37.11,-1.86 71.05,-8.16 102.22,-19.29 31.16,-11.13 61.59,-27.64 91.27,-49.72 14.1,-10.2 29.31,-22.26 45.64,-36.36 16.32,-14.29 25.97,-21.33 28.94,-21.33 2.78,0 5.01,0.93 6.49,2.41 1.48,1.66 2.23,4.08 2.6,7.42 0,4.27 -4.27,10.76 -12.99,19.11 -8.72,8.35 -25.97,22.82 -51.57,43.41 -34.88,27.64 -71.42,47.86 -110.01,60.85 -38.59,13.17 -82.74,19.85 -132.45,20.22l-12.43 13.73c-3.34,3.53 -7.42,6.31 -12.24,8.16 -4.82,1.86 -10.76,2.78 -17.63,2.78l-25.04 0c-3.9,0 -6.87,-0.56 -8.91,-1.67 -2.04,-1.11 -2.97,-2.41 -2.97,-3.9 0,-0.37 0.19,-1.3 0.74,-2.97 0.56,-1.67 1.3,-3.53 2.41,-5.75l5.57 -12.61zm94.98 -315.18c0.74,15.21 1.3,26.16 1.3,33.21 0.19,6.86 0.37,13.35 0.37,19.48 0,32.28 -2.41,63.81 -7.42,94.98 -4.82,31.17 -12.43,61.78 -22.45,91.83 78.65,-88.67 160.65,-187.36 246.36,-296.07 85.7,-108.71 135.61,-171.04 149.7,-186.99 30.43,-33.58 62.1,-66.65 95.17,-98.88 32.97,-32.13 -71.45,-3.3 -35.46,-34.09 -36.36,2.04 51.94,-34.96 -12.96,9.24 -64.77,44.1 -139.69,106.67 -224.47,187.55l-190.15 179.76zm274.55 334.29c-3.15,1.11 -7.42,1.86 -12.43,2.41 -5.01,0.56 -13.55,0.93 -25.6,0.93 -12.25,0 -20.59,-0.56 -24.67,-1.67 -4.27,-1.11 -6.31,-2.97 -6.31,-5.94 0,-6.49 15.95,-24.49 47.86,-53.79 21.33,-20.03 38.77,-36.73 52.13,-50.09l13.17 -11.88c73.28,-71.05 109.82,-111.86 109.82,-122.25 -0.37,-3.34 -1.11,-5.57 -2.23,-7.05 -1.11,-1.48 -2.23,-2.23 -3.71,-2.23 -10.2,0 -23.19,4.82 -38.96,14.66 -15.77,9.83 -38.03,27.08 -66.6,52.12 -7.24,6.12 -15.95,13.92 -26.16,23.37 -13.35,12.62 -22.26,19.11 -26.53,19.11 -2.59,0 -4.82,-0.93 -6.86,-2.78 -2.04,-1.86 -2.97,-4.08 -2.97,-6.49 0,-5.2 12.8,-19.11 38.58,-41.92 5.38,-4.82 9.65,-8.54 12.43,-11.5 30.61,-26.71 57.13,-46.75 79.95,-60.1 22.82,-13.17 42.3,-19.85 58.25,-19.85 11.5,0 20.41,3.9 26.53,11.5 6.31,7.61 9.28,19.11 9.28,34.32 0,2.6 -0.19,5.56 -0.56,9.27 -0.37,3.53 -0.74,8.91 -1.48,15.77 35.8,-25.04 64.74,-43.04 87,-53.61 22.08,-10.76 41,-16.14 56.58,-16.14 11.5,0 20.78,3.53 27.46,10.39 6.68,6.87 10.02,16.33 10.02,28.2 0,13.17 -4.45,26.53 -13.36,40.07 -8.9,13.55 -27.82,34.14 -56.95,61.77 -7.61,7.24 -18.55,17.26 -32.65,30.43 -44.15,41.18 -66.23,66.23 -66.23,74.95 0,3.9 1.67,7.23 4.82,9.83 3.34,2.41 7.61,3.71 13.17,3.71 15.95,0 39.14,-7.61 69.93,-23 30.61,-15.4 63.26,-36.36 98.14,-62.89 14.84,-10.76 30.61,-23.56 47.31,-38.03 16.69,-14.47 26.53,-21.7 29.87,-21.7 2.59,0 4.45,0.93 5.93,2.41 1.48,1.66 2.41,4.08 2.78,7.42 0,6.49 -20.22,26.16 -60.47,58.62l-2.6 2.22c-39.88,31.54 -78.29,56.77 -115.02,75.69 -36.91,18.74 -64.93,28.2 -84.59,28.2 -16.32,0 -29.5,-4.45 -39.7,-13.55 -10.21,-9.09 -15.22,-20.96 -15.22,-35.43 0,-17.44 6.68,-36.36 19.85,-57.13 13.17,-20.6 32.28,-41.56 57.32,-62.89 7.98,-7.05 18.74,-16.14 32.65,-27.82 33.58,-28.2 50.46,-44.89 50.46,-49.9 0,-2.6 -1.3,-4.82 -3.9,-6.49 -2.41,-1.86 -5.56,-2.78 -9.09,-2.78 -20.78,0 -61.03,23.37 -120.95,70.31 -60.1,46.93 -125.22,107.41 -195.53,181.24zm775.98 -429.83c0,-10.2 3.53,-18.55 10.57,-24.86 7.05,-6.3 16.51,-9.46 28.2,-9.46 11.87,0 21.52,3.15 28.57,9.46 7.05,6.31 10.57,14.66 10.57,24.86 0,10.76 -3.71,19.48 -10.94,25.97 -7.24,6.49 -16.7,9.83 -28.2,9.83 -12.06,0 -21.52,-3.34 -28.38,-9.83 -6.86,-6.49 -10.39,-15.21 -10.39,-25.97zm-219.46 229.1c-20.23,11.68 -40.63,25.42 -61.04,41.18 -20.41,15.77 -32.28,23.56 -35.43,23.56 -2.23,0 -4.08,-0.74 -5.57,-2.23 -1.3,-1.3 -2.04,-3.15 -2.04,-5.38 0,-5.75 6.68,-13.73 19.85,-23.93l0.56 -0.56 33.58 -25.6c41,-31.54 74.57,-54.91 100.73,-70.31 25.97,-15.4 45.26,-23.19 57.7,-23.19 16.32,0 29.49,1.11 39.33,3.34 10.01,2.04 15.02,5.01 15.02,8.53 0,2.6 -14.84,16.33 -44.34,41.19 -29.68,24.85 -57.13,49.71 -82.55,74.76 -32.28,31.54 -56.4,57.7 -72.54,78.29 -16.14,20.78 -24.3,35.43 -24.3,44.15 0,4.63 1.48,8.34 4.27,10.76 2.97,2.6 7.05,3.9 12.06,3.9 15.21,0 37.84,-7.61 67.71,-22.82 30.05,-15.21 61.96,-35.99 96.09,-62.14 13.36,-9.65 28.2,-21.33 44.34,-35.06 15.95,-13.54 25.42,-20.41 27.83,-20.41 2.23,0 4.08,0.93 5.75,2.78 1.67,1.86 2.41,3.9 2.41,5.94 0,7.05 -17.07,24.12 -51.57,51.76l-11.88 9.83c-36.91,30.05 -72.9,53.8 -107.78,71.05 -35.06,17.25 -63.44,25.79 -85.52,25.79 -15.95,0 -28.94,-4.27 -38.96,-12.99 -9.83,-8.72 -14.84,-20.03 -14.84,-33.76 0,-18.55 9.27,-40.81 27.64,-66.97 18.36,-26.16 46.19,-56.58 83.48,-91.46zm199.42 200.72c-3.15,1.11 -7.42,1.86 -12.43,2.41 -5.2,0.56 -13.73,0.93 -25.6,0.93 -12.25,0 -20.59,-0.56 -24.67,-1.67 -4.27,-1.11 -6.31,-2.97 -6.31,-5.94 0,-6.49 15.95,-24.49 47.86,-53.79 21.33,-20.03 38.77,-36.73 52.13,-50.09l12.98 -11.88c73.28,-71.05 109.82,-111.86 109.82,-122.25 -0.37,-3.34 -1.11,-5.57 -2.04,-7.05 -1.11,-1.48 -2.41,-2.23 -3.9,-2.23 -10.2,0 -23.19,4.82 -38.77,14.66 -15.77,9.83 -38.03,27.08 -66.6,52.12 -7.24,6.12 -15.95,13.92 -26.16,23.37 -13.35,12.62 -22.26,19.11 -26.53,19.11 -2.59,0 -4.82,-0.93 -6.86,-2.78 -2.04,-1.86 -2.97,-4.08 -2.97,-6.49 0,-5.2 13.17,-19.48 39.7,-43.04 5.01,-4.45 8.72,-7.79 11.32,-10.39 32.65,-28.2 59.73,-48.6 81.62,-61.22 21.7,-12.43 40.44,-18.74 56.39,-18.74 11.69,0 20.59,3.9 26.71,11.5 6.12,7.61 9.28,19.11 9.28,34.32 0,2.6 -0.19,5.56 -0.56,9.27 -0.37,3.53 -0.93,8.91 -1.67,15.77 49.16,-30.8 82.92,-50.46 100.73,-58.62 18,-8.16 33.02,-12.24 44.89,-12.24 9.83,0 17.44,3.9 22.82,11.68 5.38,7.79 8.16,19.29 8.16,34.14 0,2.97 -0.19,5.93 -0.19,9.27 -0.19,3.15 -0.74,8.54 -1.48,15.77 44.34,-28.01 76.43,-46.75 96.65,-56.4 20.03,-9.64 35.99,-14.47 47.49,-14.47 12.8,0 22.82,3.53 30.23,10.57 7.42,7.05 11.13,16.89 11.13,29.13 0,22.08 -22.82,55.47 -68.64,100.18l-1.67 1.66c-7.98,7.24 -18.74,17.26 -32.65,30.43 -44.15,41.18 -66.23,66.23 -66.23,74.95 0,3.9 1.67,7.23 4.82,9.83 3.34,2.41 7.61,3.71 13.17,3.71 15.96,0 39.33,-7.61 70.31,-23 31.17,-15.4 64,-36.36 98.88,-62.89 14.84,-10.76 30.61,-23.56 47.31,-38.03 16.51,-14.47 26.34,-21.7 29.31,-21.7 2.41,0 4.45,0.93 5.94,2.41 1.48,1.66 2.23,4.08 2.23,7.42 0,6.49 -20.22,26.16 -60.47,58.62l-3.15 2.78c-39.51,31.17 -77.73,56.21 -114.83,75.13 -36.91,18.74 -65.11,28.2 -84.78,28.2 -15.95,0 -28.94,-4.45 -39.14,-13.55 -10.21,-9.09 -15.22,-20.96 -15.22,-35.43 0,-17.44 6.68,-36.36 19.85,-57.13 13.17,-20.6 32.1,-41.56 56.77,-62.89 7.98,-7.05 18.74,-16.14 32.65,-27.82 33.95,-28.2 51.02,-44.89 51.02,-49.9 0,-2.6 -1.3,-4.82 -4.08,-6.49 -2.78,-1.86 -5.93,-2.78 -9.46,-2.78 -20.41,0 -59.55,22.82 -117.61,68.45 -58.25,45.64 -125.03,106.67 -200.35,183.1 -3.53,1.11 -7.98,1.86 -12.98,2.41 -5.01,0.56 -13.36,0.93 -25.04,0.93 -12.62,0 -21.15,-0.56 -25.6,-1.67 -4.27,-1.11 -6.49,-2.97 -6.49,-5.94 0,-6.49 15.77,-24.49 47.31,-53.79 12.43,-11.69 22.08,-20.96 29.31,-27.83 51.94,-48.79 89.23,-85.33 112.23,-109.45 23,-24.12 34.5,-38.58 34.5,-43.78 0,-3.15 -1.11,-6.12 -3.71,-8.72 -2.6,-2.41 -5.19,-3.71 -8.16,-3.71 -19.85,0 -59.74,23.19 -119.66,69.75 -59.73,46.56 -125.96,107.22 -198.86,181.8zm685.27 -96.84c-3.34,6.87 -5.75,13.55 -7.42,20.22 -1.67,6.49 -2.41,12.25 -2.41,17.26 0,11.68 3.71,20.78 11.13,27.27 7.42,6.49 17.81,9.83 30.79,9.83 22.82,0 50.83,-8.35 83.85,-25.23 33.02,-16.88 68.27,-40.63 106.11,-71.42 9.64,-8.34 21.52,-18.92 35.62,-31.72 14.1,-12.99 22.82,-19.29 25.97,-19.29 2.97,0 5.2,0.74 6.49,2.41 1.48,1.66 2.41,4.08 2.78,7.23 0,4.08 -4.82,10.95 -14.66,20.96 -9.83,10.02 -26.71,25.23 -51.01,46.01 -36.18,30.8 -72.35,54.73 -108.52,71.98 -36.36,17.25 -67.9,25.79 -95.17,25.79 -25.97,0 -46.75,-7.98 -62.33,-23.93 -15.59,-15.95 -23.37,-37.66 -23.37,-65.3 0,-24.67 7.79,-49.16 23.37,-73.65 15.58,-24.49 38.21,-47.86 67.9,-69.94 26.15,-18.92 50.64,-33.02 73.46,-42.48 22.82,-9.46 43.97,-14.1 63.44,-14.1 17.44,0 29.68,2.78 36.92,8.34 7.23,5.75 10.94,15.4 10.94,29.13 0,28.01 -20.59,56.95 -61.59,87 -41,30.05 -91.83,51.39 -152.3,63.63zm15.77 -32.28c48.98,-10.21 90.16,-26.53 123.55,-48.98 33.39,-22.63 50.08,-43.59 50.08,-63.26 0,-6.87 -1.3,-11.88 -3.89,-14.84 -2.41,-2.78 -6.87,-4.27 -12.99,-4.27 -18.18,0 -40.44,11.13 -66.97,33.57 -26.53,22.26 -56.39,54.91 -89.79,97.77z"/>
 </g>
</svg>
