<?xml version="1.0" encoding="UTF-8"?>
<!DOCTYPE svg PUBLIC "-//W3C//DTD SVG 1.1//EN" "http://www.w3.org/Graphics/SVG/1.1/DTD/svg11.dtd">
<!-- Creator: CorelDRAW -->
<svg xmlns="http://www.w3.org/2000/svg" xml:space="preserve" width="58.9176mm" height="29.3132mm" version="1.1" style="shape-rendering:geometricPrecision; text-rendering:geometricPrecision; image-rendering:optimizeQuality; fill-rule:evenodd; clip-rule:evenodd"
viewBox="0 0 964.72 479.98"
 xmlns:xlink="http://www.w3.org/1999/xlink"
 xmlns:xodm="http://www.corel.com/coreldraw/odm/2003">
 <defs>
  <style type="text/css">
   <![CDATA[
    .fil0 {fill:white;fill-rule:nonzero}
   ]]>
  </style>
 </defs>
 <g id="Слой_x0020_1">
  <metadata id="CorelCorpID_0Corel-Layer"/>
  <g id="_2328447658368">
   <path class="fil0" d="M84.83 225.5l70.87 0 0 -40.72c0,-11.36 -2.86,-19.6 -8.5,-24.7 -5.64,-5.1 -14.68,-7.61 -27.03,-7.61 -11.9,0 -20.76,2.68 -26.58,8.05 -5.82,5.28 -8.77,13.42 -8.77,24.25l0 40.72zm131.01 59.06l12.35 4.2c-8.95,24.61 -22.01,42.86 -39.19,54.76 -17.27,11.9 -39.37,17.81 -66.49,17.81 -37.22,0 -67.02,-9.84 -89.21,-29.62 -22.19,-19.78 -33.29,-46.08 -33.29,-78.92 0,-32.48 11.45,-59.51 34.45,-80.98 23,-21.47 51.99,-32.21 86.98,-32.21 32.12,0 57.54,8.86 76.15,26.67 18.61,17.72 27.92,41.97 27.92,72.75l0 2.59 -140.67 0 0 52.71c0,20.49 3.22,34.54 9.57,42.15 6.35,7.61 17.45,11.45 33.38,11.45 21.47,0 39.55,-5.28 54.23,-15.93 14.68,-10.56 25.95,-26.4 33.83,-47.42l-0 0zm32.84 54.76l31.14 0 0 -316.77 -34.36 0 0 -16.11c19.24,-0.54 37.94,-1.43 56.01,-2.59 18.16,-1.16 35.7,-2.42 52.44,-3.85l0 339.32 33.83 0 0 16.11 -139.06 0 0 -16.11 0 -0zm180.31 -284.2c0,-10.29 3.67,-19.06 11.1,-26.4 7.43,-7.34 16.29,-11.01 26.57,-11.01 10.11,0 18.79,3.58 25.86,10.82 7.07,7.25 10.56,16.11 10.56,26.58 0,10.38 -3.58,19.24 -10.74,26.67 -7.16,7.43 -15.84,11.09 -26.13,11.09 -10.38,0 -19.15,-3.67 -26.4,-11.09 -7.25,-7.43 -10.83,-16.29 -10.83,-26.67l0 0zm-30.07 300.31l0 -16.11 31.68 0 0 -177.18 -34.9 0 0.27 -16.11c19.42,-0.54 38.12,-1.34 56.2,-2.42 18.07,-1.07 35.61,-2.42 52.53,-4.03l0 199.73 33.29 0 0 16.11 -139.06 0 0 0zm181.92 -47.69l0 -146.13 -30.6 0 0 -16.11 30.6 0 0 -66.04c3.49,0.81 7.43,1.34 11.72,1.7 4.3,0.27 10.65,0.45 19.24,0.45 7.7,0 14.86,-0.18 21.56,-0.63 6.62,-0.36 13.15,-0.9 19.42,-1.52l0 66.04 42.95 0 0 16.11 -42.95 0 0 146.13c0,9.04 1.25,15.21 3.67,18.52 2.42,3.31 6.98,5.01 13.6,5.01 6.62,0 12.08,-2.78 16.38,-8.23 4.3,-5.46 6.8,-12.97 7.69,-22.37l14.5 0c-1.07,18.16 -8.41,32.75 -22.01,43.76 -13.69,10.92 -31.23,16.38 -52.8,16.38 -20.22,0 -34.18,-3.4 -41.7,-10.11 -7.52,-6.71 -11.28,-21.03 -11.28,-42.95l0 0.01zm240.53 -82.24l70.87 0 0 -40.72c0,-11.36 -2.86,-19.6 -8.5,-24.7 -5.64,-5.1 -14.68,-7.61 -27.03,-7.61 -11.9,0 -20.76,2.68 -26.58,8.05 -5.82,5.28 -8.77,13.42 -8.77,24.25l0 40.72zm131 59.06l12.35 4.2c-8.95,24.61 -22.01,42.86 -39.19,54.76 -17.27,11.9 -39.37,17.81 -66.49,17.81 -37.22,0 -67.02,-9.84 -89.21,-29.62 -22.19,-19.78 -33.29,-46.08 -33.29,-78.92 0,-32.48 11.45,-59.51 34.45,-80.98 23,-21.47 51.99,-32.21 86.98,-32.21 32.12,0 57.54,8.86 76.15,26.67 18.61,17.72 27.92,41.97 27.92,72.75l0 2.59 -140.67 0 0 52.71c0,20.49 3.22,34.54 9.57,42.15 6.35,7.61 17.45,11.45 33.38,11.45 21.47,0 39.55,-5.28 54.23,-15.93 14.68,-10.56 25.95,-26.4 33.83,-47.42l-0 0z"/>
   <path class="fil0" d="M320.49 464.8c5.5,-12.55 9.63,-24.87 12.32,-37.01 2.75,-12.15 4.13,-24.06 4.13,-35.81 0,-3.04 0,-5.33 -0.06,-6.82 -0.06,-1.49 -0.17,-2.86 -0.29,-4.12l-10.54 9.91c-9.17,8.48 -18.79,17.01 -28.88,25.55 -10.08,8.59 -20.51,17.13 -31.4,25.61 6.93,6.36 14.9,11.46 23.95,15.18 9,3.78 19.25,6.25 30.77,7.51l0.01 -0zm-61.08 -29.56c10.83,-8.08 21.2,-16.22 31.11,-24.52 9.91,-8.25 19.37,-16.62 28.3,-24.98l16.79 -15.76c-2.46,-17.82 -8.31,-31.69 -17.47,-41.71 -9.17,-10.03 -20.51,-15.01 -34.09,-15.01 -14.61,0 -26.81,5.44 -36.55,16.27 -9.74,10.83 -14.61,24.58 -14.61,41.08 0,11 2.23,21.89 6.65,32.66 4.41,10.77 11.06,21.43 19.88,31.97l-0 0zm55.58 36.44c-10.43,-1.32 -20.22,-4.01 -29.34,-8.08 -9.11,-4.01 -17.88,-9.57 -26.24,-16.62 -15.58,11.23 -28.71,19.25 -39.47,24.07 -10.71,4.81 -20.62,7.22 -29.68,7.22 -11,0 -19.77,-2.98 -26.47,-9 -6.65,-5.96 -9.97,-13.86 -9.97,-23.61 0,-7.73 2.24,-14.15 6.65,-19.25 4.41,-5.1 9.86,-7.62 16.33,-7.62 4.47,0 8.13,1.37 10.94,4.18 2.81,2.81 4.19,6.42 4.19,10.88 0,3.84 -1.21,6.82 -3.5,9.05 -2.35,2.24 -5.56,3.38 -9.57,3.38 -1.89,0 -4.3,-0.34 -7.16,-1.09 -2.81,-0.75 -4.64,-1.09 -5.44,-1.09 -1.32,0 -2.29,0.34 -2.92,1.09 -0.63,0.75 -0.92,1.89 -0.92,3.44 0,6.07 2.58,11 7.73,14.9 5.15,3.84 11.97,5.79 20.46,5.79 8.37,0 17.76,-2.46 28.19,-7.34 10.43,-4.87 21.89,-12.15 34.38,-21.89 -9.97,-11.86 -17.36,-24.01 -22.23,-36.38 -4.87,-12.38 -7.34,-25.27 -7.34,-38.68 0,-20.51 5.15,-37.3 15.53,-50.36 10.37,-13.12 23.49,-19.65 39.36,-19.65 15.7,0 29.28,6.13 40.79,18.39 11.57,12.26 19.37,29.05 23.55,50.31l56.72 -51.85c35.12,-32.08 62.4,-54.13 81.76,-66.18 19.32,-12.02 -6.43,0.58 8.47,0.58 1.89,0 3.52,0.37 4.87,1.15 1.34,0.77 2,1.72 2,2.69 0,0.57 -6.3,7.68 -18.96,21.26 -12.66,13.58 18.32,9.47 7.11,24.74 -3.22,4.38 -8.25,11.12 -14.95,20.28 -46.29,63.6 -87.6,112.82 -123.87,147.71 11.46,-0.57 21.94,-2.52 31.57,-5.96 9.62,-3.44 19.02,-8.54 28.19,-15.36 4.36,-3.15 9.05,-6.88 14.1,-11.23 5.04,-4.41 8.02,-6.59 8.94,-6.59 0.86,0 1.55,0.29 2,0.75 0.46,0.51 0.69,1.26 0.8,2.29 0,1.32 -1.32,3.32 -4.01,5.9 -2.69,2.58 -8.02,7.05 -15.93,13.41 -10.77,8.54 -22.06,14.78 -33.98,18.79 -11.92,4.07 -25.55,6.13 -40.91,6.25l-3.84 4.24c-1.03,1.09 -2.29,1.95 -3.78,2.52 -1.49,0.57 -3.32,0.86 -5.44,0.86l-7.73 0c-1.21,0 -2.12,-0.17 -2.75,-0.52 -0.63,-0.34 -0.92,-0.75 -0.92,-1.21 0,-0.11 0.06,-0.4 0.23,-0.92 0.17,-0.52 0.4,-1.09 0.75,-1.78l1.72 -3.9 -0 0.01zm29.34 -97.35c0.23,4.7 0.4,8.08 0.4,10.26 0.06,2.12 0.11,4.12 0.11,6.02 0,9.97 -0.75,19.71 -2.29,29.34 -1.49,9.63 -3.84,19.08 -6.93,28.36 24.29,-27.39 49.62,-57.87 76.09,-91.44 26.47,-33.57 41.88,-52.83 46.24,-57.75 9.4,-10.37 19.18,-20.59 29.39,-30.54 10.18,-9.92 -22.07,-1.02 -10.95,-10.53 -11.23,0.63 16.04,-10.8 -4,2.85 -20,13.62 -43.14,32.95 -69.33,57.93l-58.73 55.52 0.01 -0.01zm84.8 103.25c-0.97,0.34 -2.29,0.57 -3.84,0.75 -1.55,0.17 -4.19,0.29 -7.91,0.29 -3.78,0 -6.36,-0.17 -7.62,-0.52 -1.32,-0.34 -1.95,-0.92 -1.95,-1.83 0,-2 4.93,-7.56 14.78,-16.61 6.59,-6.19 11.97,-11.34 16.1,-15.47l4.07 -3.67c22.63,-21.94 33.92,-34.55 33.92,-37.76 -0.11,-1.03 -0.34,-1.72 -0.69,-2.18 -0.34,-0.46 -0.69,-0.69 -1.15,-0.69 -3.15,0 -7.16,1.49 -12.03,4.53 -4.87,3.04 -11.75,8.36 -20.57,16.1 -2.24,1.89 -4.93,4.3 -8.08,7.22 -4.12,3.9 -6.88,5.9 -8.19,5.9 -0.8,0 -1.49,-0.29 -2.12,-0.86 -0.63,-0.57 -0.92,-1.26 -0.92,-2 0,-1.61 3.95,-5.9 11.92,-12.95 1.66,-1.49 2.98,-2.64 3.84,-3.55 9.45,-8.25 17.64,-14.44 24.69,-18.56 7.05,-4.07 13.06,-6.13 17.99,-6.13 3.55,0 6.3,1.21 8.19,3.55 1.95,2.35 2.87,5.9 2.87,10.6 0,0.8 -0.06,1.72 -0.17,2.86 -0.11,1.09 -0.23,2.75 -0.46,4.87 11.06,-7.73 20,-13.29 26.87,-16.56 6.82,-3.32 12.66,-4.98 17.47,-4.98 3.55,0 6.42,1.09 8.48,3.21 2.06,2.12 3.09,5.04 3.09,8.71 0,4.07 -1.37,8.19 -4.13,12.38 -2.75,4.19 -8.59,10.54 -17.59,19.08 -2.35,2.24 -5.73,5.33 -10.08,9.4 -13.64,12.72 -20.46,20.46 -20.46,23.15 0,1.21 0.52,2.23 1.49,3.04 1.03,0.75 2.35,1.15 4.07,1.15 4.93,0 12.09,-2.35 21.6,-7.1 9.45,-4.76 19.54,-11.23 30.31,-19.42 4.58,-3.32 9.45,-7.28 14.61,-11.75 5.15,-4.47 8.19,-6.7 9.23,-6.7 0.8,0 1.37,0.29 1.83,0.75 0.46,0.51 0.75,1.26 0.86,2.29 0,2 -6.25,8.08 -18.68,18.1l-0.8 0.69c-12.32,9.74 -24.18,17.53 -35.53,23.38 -11.4,5.79 -20.05,8.71 -26.13,8.71 -5.04,0 -9.11,-1.37 -12.26,-4.19 -3.15,-2.81 -4.7,-6.47 -4.7,-10.94 0,-5.39 2.06,-11.23 6.13,-17.64 4.07,-6.36 9.97,-12.84 17.7,-19.42 2.46,-2.18 5.79,-4.98 10.08,-8.59 10.37,-8.71 15.58,-13.86 15.58,-15.41 0,-0.8 -0.4,-1.49 -1.21,-2 -0.75,-0.57 -1.72,-0.86 -2.81,-0.86 -6.42,0 -18.85,7.22 -37.36,21.72 -18.56,14.49 -38.68,33.17 -60.39,55.98l0.01 -0.01zm239.67 -132.76c0,-3.15 1.09,-5.73 3.26,-7.68 2.18,-1.95 5.1,-2.92 8.71,-2.92 3.67,0 6.65,0.97 8.82,2.92 2.18,1.95 3.26,4.53 3.26,7.68 0,3.32 -1.15,6.02 -3.38,8.02 -2.24,2 -5.16,3.04 -8.71,3.04 -3.73,0 -6.65,-1.03 -8.77,-3.04 -2.12,-2 -3.21,-4.7 -3.21,-8.02zm-67.78 70.76c-6.25,3.61 -12.55,7.85 -18.85,12.72 -6.3,4.87 -9.97,7.28 -10.94,7.28 -0.69,0 -1.26,-0.23 -1.72,-0.69 -0.4,-0.4 -0.63,-0.97 -0.63,-1.66 0,-1.78 2.06,-4.24 6.13,-7.39l0.17 -0.17 10.37 -7.91c12.66,-9.74 23.03,-16.96 31.11,-21.72 8.02,-4.76 13.98,-7.16 17.82,-7.16 5.04,0 9.11,0.34 12.15,1.03 3.09,0.63 4.64,1.55 4.64,2.63 0,0.8 -4.58,5.04 -13.7,12.72 -9.17,7.67 -17.64,15.35 -25.5,23.09 -9.97,9.74 -17.42,17.82 -22.4,24.18 -4.98,6.42 -7.51,10.94 -7.51,13.64 0,1.43 0.46,2.58 1.32,3.32 0.92,0.8 2.18,1.21 3.73,1.21 4.7,0 11.69,-2.35 20.91,-7.05 9.28,-4.7 19.14,-11.12 29.68,-19.19 4.13,-2.98 8.71,-6.59 13.7,-10.83 4.93,-4.18 7.85,-6.3 8.59,-6.3 0.69,0 1.26,0.29 1.78,0.86 0.52,0.57 0.75,1.21 0.75,1.83 0,2.18 -5.27,7.45 -15.93,15.99l-3.67 3.04c-11.4,9.28 -22.52,16.62 -33.29,21.94 -10.83,5.33 -19.59,7.97 -26.41,7.97 -4.93,0 -8.94,-1.32 -12.03,-4.01 -3.04,-2.69 -4.58,-6.19 -4.58,-10.43 0,-5.73 2.86,-12.6 8.54,-20.68 5.67,-8.08 14.27,-17.47 25.78,-28.25l0 0zm61.59 61.99c-0.97,0.34 -2.29,0.57 -3.84,0.75 -1.61,0.17 -4.24,0.29 -7.91,0.29 -3.78,0 -6.36,-0.17 -7.62,-0.52 -1.32,-0.34 -1.95,-0.92 -1.95,-1.83 0,-2 4.93,-7.56 14.78,-16.61 6.59,-6.19 11.97,-11.34 16.1,-15.47l4.01 -3.67c22.63,-21.94 33.92,-34.55 33.92,-37.76 -0.11,-1.03 -0.34,-1.72 -0.63,-2.18 -0.34,-0.46 -0.75,-0.69 -1.21,-0.69 -3.15,0 -7.16,1.49 -11.97,4.53 -4.87,3.04 -11.75,8.36 -20.57,16.1 -2.24,1.89 -4.93,4.3 -8.08,7.22 -4.12,3.9 -6.88,5.9 -8.19,5.9 -0.8,0 -1.49,-0.29 -2.12,-0.86 -0.63,-0.57 -0.92,-1.26 -0.92,-2 0,-1.61 4.07,-6.02 12.26,-13.29 1.55,-1.37 2.69,-2.41 3.5,-3.21 10.08,-8.71 18.45,-15.01 25.21,-18.91 6.7,-3.84 12.49,-5.79 17.42,-5.79 3.61,0 6.36,1.21 8.25,3.55 1.89,2.35 2.87,5.9 2.87,10.6 0,0.8 -0.06,1.72 -0.17,2.86 -0.11,1.09 -0.29,2.75 -0.52,4.87 15.18,-9.51 25.61,-15.58 31.11,-18.1 5.56,-2.52 10.2,-3.78 13.86,-3.78 3.04,0 5.39,1.21 7.05,3.61 1.66,2.41 2.52,5.96 2.52,10.54 0,0.92 -0.06,1.83 -0.06,2.86 -0.06,0.97 -0.23,2.64 -0.46,4.87 13.7,-8.65 23.61,-14.44 29.85,-17.42 6.19,-2.98 11.12,-4.47 14.67,-4.47 3.95,0 7.05,1.09 9.34,3.26 2.29,2.18 3.44,5.22 3.44,9 0,6.82 -7.05,17.13 -21.2,30.94l-0.52 0.51c-2.46,2.24 -5.79,5.33 -10.08,9.4 -13.64,12.72 -20.46,20.46 -20.46,23.15 0,1.21 0.52,2.23 1.49,3.04 1.03,0.75 2.35,1.15 4.07,1.15 4.93,0 12.15,-2.35 21.72,-7.1 9.63,-4.76 19.77,-11.23 30.54,-19.42 4.58,-3.32 9.45,-7.28 14.61,-11.75 5.1,-4.47 8.13,-6.7 9.05,-6.7 0.75,0 1.37,0.29 1.83,0.75 0.46,0.51 0.69,1.26 0.69,2.29 0,2 -6.25,8.08 -18.68,18.1l-0.97 0.86c-12.2,9.63 -24.01,17.36 -35.47,23.2 -11.4,5.79 -20.11,8.71 -26.19,8.71 -4.93,0 -8.94,-1.37 -12.09,-4.19 -3.15,-2.81 -4.7,-6.47 -4.7,-10.94 0,-5.39 2.06,-11.23 6.13,-17.64 4.07,-6.36 9.91,-12.84 17.53,-19.42 2.46,-2.18 5.79,-4.98 10.08,-8.59 10.49,-8.71 15.76,-13.86 15.76,-15.41 0,-0.8 -0.4,-1.49 -1.26,-2 -0.86,-0.57 -1.83,-0.86 -2.92,-0.86 -6.3,0 -18.39,7.05 -36.32,21.14 -17.99,14.1 -38.62,32.95 -61.88,56.55 -1.09,0.34 -2.46,0.57 -4.01,0.75 -1.55,0.17 -4.13,0.29 -7.73,0.29 -3.9,0 -6.53,-0.17 -7.91,-0.52 -1.32,-0.34 -2,-0.92 -2,-1.83 0,-2 4.87,-7.56 14.61,-16.61 3.84,-3.61 6.82,-6.47 9.05,-8.59 16.04,-15.07 27.56,-26.35 34.66,-33.8 7.1,-7.45 10.66,-11.92 10.66,-13.52 0,-0.97 -0.34,-1.89 -1.15,-2.69 -0.8,-0.75 -1.6,-1.15 -2.52,-1.15 -6.13,0 -18.45,7.16 -36.96,21.54 -18.45,14.38 -38.9,33.11 -61.42,56.15l0 -0zm211.65 -29.91c-1.03,2.12 -1.78,4.19 -2.29,6.25 -0.52,2 -0.75,3.78 -0.75,5.33 0,3.61 1.15,6.42 3.44,8.42 2.29,2 5.5,3.04 9.51,3.04 7.05,0 15.7,-2.58 25.9,-7.79 10.2,-5.21 21.08,-12.55 32.77,-22.06 2.98,-2.58 6.65,-5.84 11,-9.8 4.36,-4.01 7.05,-5.96 8.02,-5.96 0.92,0 1.61,0.23 2,0.75 0.46,0.51 0.75,1.26 0.86,2.23 0,1.26 -1.49,3.38 -4.53,6.47 -3.04,3.09 -8.25,7.79 -15.76,14.21 -11.17,9.51 -22.35,16.9 -33.52,22.23 -11.23,5.33 -20.97,7.97 -29.39,7.97 -8.02,0 -14.44,-2.46 -19.25,-7.39 -4.82,-4.93 -7.22,-11.63 -7.22,-20.17 0,-7.62 2.41,-15.18 7.22,-22.75 4.81,-7.56 11.8,-14.78 20.97,-21.6 8.08,-5.84 15.64,-10.2 22.69,-13.12 7.05,-2.92 13.58,-4.36 19.59,-4.36 5.39,0 9.17,0.86 11.4,2.58 2.23,1.78 3.38,4.76 3.38,9 0,8.65 -6.36,17.59 -19.02,26.87 -12.66,9.28 -28.36,15.87 -47.04,19.65l0 -0zm4.87 -9.97c15.13,-3.15 27.85,-8.19 38.16,-15.13 10.31,-6.99 15.47,-13.46 15.47,-19.54 0,-2.12 -0.4,-3.67 -1.2,-4.58 -0.75,-0.86 -2.12,-1.32 -4.01,-1.32 -5.61,0 -12.49,3.44 -20.68,10.37 -8.19,6.88 -17.42,16.96 -27.73,30.2l0 0z"/>
  </g>
 </g>
</svg>
