<?xml version="1.0" encoding="UTF-8"?>
<!DOCTYPE svg PUBLIC "-//W3C//DTD SVG 1.1//EN" "http://www.w3.org/Graphics/SVG/1.1/DTD/svg11.dtd">
<!-- Creator: CorelDRAW -->
<svg xmlns="http://www.w3.org/2000/svg" xml:space="preserve" width="1rem" height="1rem" version="1.1" style="shape-rendering:geometricPrecision; text-rendering:geometricPrecision; image-rendering:optimizeQuality; fill-rule:evenodd; clip-rule:evenodd"
viewBox="0 0 33.05 33.04"
 xmlns:xlink="http://www.w3.org/1999/xlink"
 xmlns:xodm="http://www.corel.com/coreldraw/odm/2003">
 <defs>
  <style type="text/css">
   <![CDATA[
    .fil0 {fill:white}
   ]]>
  </style>
 </defs>
 <g id="Слой_x0020_1">
  <metadata id="CorelCorpID_0Corel-Layer"/>
  <g id="_2544813575328">
   <path class="fil0" d="M13.57 2.19c0.21,-0.05 0.5,-0.03 0.7,-0.01 0.32,0.04 0.73,-0 1.06,0.03 0.13,0.01 0.13,0.06 0.3,0.07l0.62 0.09c0.13,0.02 0.2,0.01 0.31,0.06 0.16,0.07 0.58,0.13 0.85,0.24 0.12,0.05 0.16,0.01 0.29,0.08 0.16,0.09 0.39,0.12 0.53,0.19 0.07,0.04 0.01,0.03 0.11,0.06l2.32 1.24c0.01,0 0.02,0.01 0.03,0.02 0.25,0.18 0.52,0.36 0.75,0.56l0.43 0.38c0.02,0.02 0.02,0.02 0.04,0.04l1.56 1.76c0,0 0.01,0.01 0.01,0.01 0,0 0.01,0.01 0.01,0.01l0.47 0.72c0.03,0.05 0.05,0.08 0.07,0.13l0.38 0.69c0.07,0.11 0.11,0.26 0.18,0.37l0.12 0.25c0.05,0.09 0.02,0.02 0.06,0.14 0.03,0.08 0.03,0.06 0.05,0.12 0.05,0.1 0.03,0.17 0.08,0.26 0.05,0.08 0.03,0.01 0.07,0.13l0.09 0.28c0.04,0.12 0.07,0.14 0.1,0.27 0.02,0.07 0.01,0.09 0.02,0.16l0.16 0.56c0.04,0.13 0.03,0.19 0.05,0.32 0.05,0.28 0.08,0.17 0.11,0.61 0.01,0.12 0.03,0.2 0.06,0.32l0.04 0.67c0,0.46 0.06,0.51 0,0.99 -0.01,0.12 0,0.25 -0,0.37 -0,0.13 -0.03,0.17 -0.03,0.32 0,0.27 -0.06,0.4 -0.07,0.67 -0,0.08 -0.03,0.27 -0.04,0.33 -0.03,0.1 -0.06,0.17 -0.07,0.27 -0.04,0.29 -0.07,0.27 -0.1,0.47 -0.03,0.18 -0.09,0.22 -0.1,0.44 -0.01,0.15 -0.13,0.38 -0.19,0.53 -0.02,0.05 -0.02,0.09 -0.04,0.14 -0.03,0.1 -0.02,0.04 -0.06,0.11 -0.05,0.09 -0.05,0.18 -0.09,0.28l-0.46 1c-0.09,0.24 -0.42,0.74 -0.57,0.99l-0.1 0.15c-0.15,0.22 -0.62,0.87 -0.78,1.03l-0.53 0.56c-0.27,0.27 -0.56,0.51 -0.84,0.77 -0,0 -0.01,0.01 -0.01,0.01l-0.23 0.19c-0,0 -0.01,0.01 -0.01,0.01l-0.7 0.51c-0.29,0.21 -0.6,0.37 -0.9,0.56 -0.16,0.1 -0.3,0.16 -0.48,0.24 -0.06,0.03 -0.03,0.02 -0.12,0.06l-0.37 0.18c-0.19,0.1 -0.31,0.11 -0.41,0.16 -0.06,0.03 -0.03,0.03 -0.11,0.06l-0.42 0.13c-0.05,0.02 -0.07,0.04 -0.11,0.06 -0.09,0.04 -0.17,0.04 -0.27,0.08l-1.48 0.35c-0.1,0.02 -0.25,0.02 -0.32,0.03 -0.12,0.02 -0.2,0.07 -0.29,0.08l-1.38 0.05c-0.15,0 -0.19,-0.03 -0.35,-0.03l-1.06 -0.03c-0.12,-0.01 -0.17,-0.06 -0.29,-0.08l-0.63 -0.09c-0.33,-0.04 -0.32,-0.09 -0.6,-0.14 -0.27,-0.05 -0.47,-0.15 -0.72,-0.2 -0.1,-0.02 -0.37,-0.16 -0.52,-0.19 -0.13,-0.03 -0.13,-0.06 -0.25,-0.1 -0.06,-0.02 -0.09,-0.02 -0.14,-0.04l-0.33 -0.16c-0.31,-0.15 -0.64,-0.28 -0.93,-0.46l-0.34 -0.21c-0.23,-0.12 -0.44,-0.27 -0.65,-0.41l-1.05 -0.83c-0,-0 -0.01,-0.01 -0.01,-0.01 -0.01,-0.01 -0.02,-0.02 -0.04,-0.04l-1 -1c-0.21,-0.22 -0.38,-0.46 -0.56,-0.7 -0.03,-0.04 -0.06,-0.08 -0.08,-0.11l-0.27 -0.37c-0.03,-0.04 -0.01,-0.01 -0.03,-0.06 -0.03,-0.07 -0.01,-0.04 -0.07,-0.11 -0.05,-0.07 -0.02,-0.03 -0.07,-0.1l-0.4 -0.69c-0.04,-0.07 -0.04,-0.05 -0.07,-0.1l-0.23 -0.49c-0.03,-0.09 -0.01,-0.06 -0.06,-0.14 -0.03,-0.06 -0.03,-0.05 -0.06,-0.12 -0.04,-0.08 -0.04,-0.06 -0.07,-0.13 -0.02,-0.05 -0.01,-0.08 -0.03,-0.14 -0.03,-0.08 -0.03,-0.05 -0.06,-0.11l-0.4 -1.24c-0.04,-0.1 -0.03,-0.2 -0.06,-0.31 -0.03,-0.14 -0.07,-0.1 -0.09,-0.28l-0.09 -0.62c-0.03,-0.31 -0.1,-0.51 -0.1,-0.61 -0.01,-0.23 0.02,-0.48 -0.01,-0.71 -0.03,-0.21 -0.03,-0.5 0,-0.71 0.03,-0.23 0,-0.48 0.01,-0.71 0,-0.15 0.04,-0.19 0.07,-0.3l0.13 -0.96c0.01,-0.14 0.07,-0.15 0.09,-0.28 0.05,-0.31 0.15,-0.57 0.22,-0.87l0.19 -0.52c0.04,-0.14 0.08,-0.13 0.11,-0.26 0.05,-0.2 0.14,-0.33 0.21,-0.51 0.04,-0.11 0.08,-0.14 0.13,-0.25l0.12 -0.25c0.04,-0.06 0.03,-0.04 0.06,-0.11 0.03,-0.07 0.02,-0.06 0.06,-0.12l0.17 -0.3c0,-0 0.01,-0.01 0.01,-0.01l0.24 -0.38c0.03,-0.04 0.04,-0.07 0.07,-0.11l0.54 -0.75c0.05,-0.08 0.1,-0.12 0.15,-0.2l1.16 -1.21c0.22,-0.2 0.44,-0.41 0.68,-0.59l0.43 -0.31c0,-0 0.01,-0.01 0.01,-0.01l0.19 -0.13c0.14,-0.12 0.29,-0.2 0.46,-0.29l0.67 -0.39c0.07,-0.04 0.05,-0.04 0.13,-0.07l0.36 -0.16c0.08,-0.05 0.06,-0.02 0.14,-0.06l0.36 -0.18c0.07,-0.02 0.08,-0.01 0.16,-0.04 0.19,-0.09 0.2,-0.08 0.38,-0.14l0.21 -0.08c0.14,-0.08 0.44,-0.12 0.62,-0.18 0.06,-0.02 0.07,-0.03 0.13,-0.05 0.2,-0.05 0.22,-0.03 0.43,-0.11l0.63 -0.11c0.13,-0.01 0.2,-0.01 0.32,-0.03 0.21,-0.03 0.27,-0.1 0.62,-0.1 0.11,0 0.65,0.02 0.72,0l-0 0zm-13.57 10.99c0,0.58 -0.03,1.16 0.06,1.72 0.04,0.25 0.01,0.55 0.06,0.78l0.08 0.34c0.02,0.12 0.02,0.24 0.06,0.36 0.03,0.11 0.04,0.25 0.07,0.35 0.05,0.13 0.07,0.18 0.09,0.33l0.22 0.79c0.08,0.17 0.06,0.16 0.11,0.31l0.18 0.46c0.02,0.09 0.02,0.08 0.05,0.14l1.66 2.94c0.01,0.02 0.03,0.04 0.05,0.05l0.04 0.04c0,0 0.01,0.01 0.01,0.01l0.17 0.25c0.21,0.28 0.45,0.53 0.68,0.78l1 0.98c0.02,0.02 0.03,0.02 0.05,0.05 0.31,0.29 0.58,0.47 0.89,0.72l0.91 0.63c0.05,0.03 0.02,0.01 0.06,0.04 0.03,0.02 0.03,0.02 0.06,0.04l0.32 0.2c0.03,0.02 0.05,0.02 0.08,0.04l0.11 0.07c0,0 0.01,0.01 0.02,0.01l0.05 0.03c0.25,0.17 1.05,0.52 1.08,0.53 0.1,0.06 0,0.02 0.13,0.06 0.15,0.05 0.3,0.14 0.44,0.18 0.09,0.03 0.09,0.01 0.17,0.05 0.06,0.03 0.05,0.04 0.14,0.06 0.09,0.03 0.09,0.02 0.17,0.06 0.13,0.05 0.2,0.03 0.32,0.1 0.16,0.09 0.49,0.11 0.65,0.19 0.12,0.05 0.22,0.05 0.35,0.08 0.16,0.03 0.15,0.06 0.3,0.09l0.72 0.12c0.13,0.02 0.2,0.06 0.34,0.08 0.23,0.03 0.55,0.03 0.78,0.06 0.72,0.11 1.8,0.07 2.48,-0.02 0.22,-0.03 0.46,-0.02 0.68,-0.06 0.14,-0.03 0.15,-0.05 0.31,-0.06 0.08,-0.01 0.25,-0.02 0.33,-0.04l0.57 -0.15c0.13,-0.05 0.19,-0.02 0.33,-0.04 0.05,-0.01 0.08,-0.03 0.12,-0.05 0.15,-0.07 0.46,-0.12 0.58,-0.17 0.09,-0.03 0.04,-0.04 0.13,-0.07 0.2,-0.07 0.36,-0.08 0.56,-0.19l0.26 -0.09c0.08,-0.04 0.17,-0.07 0.26,-0.11 0.05,-0.02 0.08,-0.03 0.13,-0.04l0.51 -0.23c0.08,-0.05 0.02,-0.03 0.13,-0.07 0.12,-0.05 0.14,-0.07 0.25,-0.12l0.6 -0.32c0,-0 0.01,-0.01 0.01,-0.01 0.1,-0.08 0.21,-0.12 0.33,-0.19l0.77 -0.52c0.06,-0.05 0.05,-0.04 0.11,-0.08l0.06 -0.04c0,-0 0.01,-0.01 0.01,-0.01l0.25 -0.17c0.21,-0.17 0.23,-0.05 0.46,0.18l1.34 1.31c0.06,0.05 0.03,0.02 0.07,0.08l2.17 2.14c0,0 0.01,0.01 0.01,0.01l0.21 0.21c0,0 0.01,0.01 0.01,0.01l1.23 1.22c0.11,0.1 0.17,0.18 0.29,0.28 0.01,0 0.02,0.02 0.03,0.02l0.07 0.07c0,0 0.01,0.01 0.01,0.01 0,0 0.01,0.01 0.01,0.01 0,0 0.01,0.01 0.01,0.01 0.37,0.37 0.73,0.77 1.13,1.1 0.26,0.22 0.48,0.48 0.72,0.71l0.67 0.67c0.05,0.06 0.09,0.08 0.15,0.14 0.05,0.05 0.09,0.09 0.14,0.14 0.27,0.23 0.71,0.35 1.05,0.22 0.05,-0.02 0.14,-0.04 0.18,-0.06 0.19,-0.09 0.42,-0.33 0.48,-0.53 0.08,-0.23 0.13,-0.42 0.07,-0.66 -0.05,-0.19 -0.16,-0.39 -0.31,-0.53l-0.97 -0.96c-0.05,-0.05 -0.1,-0.1 -0.15,-0.15l-1.69 -1.65c-0.03,-0.02 -0.04,-0.04 -0.06,-0.06l-0.06 -0.06c-0,-0 -0.01,-0.01 -0.01,-0.01l-0.71 -0.7c-0.03,-0.02 -0.04,-0.04 -0.06,-0.06l-0.79 -0.77c-0.1,-0.09 -0.18,-0.18 -0.28,-0.27 -0,-0 -0.01,-0.01 -0.01,-0.01 -0,-0 -0.01,-0.01 -0.01,-0.01l-0.11 -0.12c-0.38,-0.35 -0.72,-0.73 -1.1,-1.08l-0.6 -0.59c-0.05,-0.06 -0.09,-0.1 -0.15,-0.15l-0.28 -0.27c-0.06,-0.05 -0.08,-0.07 -0.14,-0.13l-0.28 -0.27c-0.19,-0.19 -1,-0.95 -1,-1.01 0,-0.11 0.23,-0.33 0.33,-0.47l0.05 -0.05c0.02,-0.03 0.02,-0.02 0.05,-0.05l1.25 -1.79c0.04,-0.07 0.05,-0.05 0.08,-0.12 0.11,-0.21 0.36,-0.58 0.42,-0.79 0.03,-0.11 0.02,-0.07 0.07,-0.15 0.08,-0.12 0.1,-0.3 0.18,-0.41 0.07,-0.11 0.21,-0.44 0.25,-0.57 0.02,-0.05 0.01,-0.11 0.03,-0.17 0.03,-0.09 0.03,-0.05 0.07,-0.13 0.06,-0.14 0.08,-0.35 0.14,-0.48 0.03,-0.06 0.04,-0.05 0.07,-0.13l0.07 -0.32c0.08,-0.22 0.13,-0.67 0.21,-0.83 0.06,-0.12 0.04,-0.19 0.06,-0.34l0.09 -0.7c0.01,-0.12 0.06,-0.21 0.09,-0.33 0.05,-0.25 -0.01,-0.55 0.02,-0.79 0.05,-0.36 0.01,-0.83 0.01,-1.2 -0,-0.16 -0.03,-0.22 -0.03,-0.39 0,-0.41 -0.1,-0.5 -0.1,-0.74 -0.01,-0.33 -0.08,-0.75 -0.18,-1.06 -0.04,-0.12 -0.02,-0.24 -0.05,-0.37 -0.02,-0.06 -0.04,-0.08 -0.06,-0.14 -0.02,-0.06 -0.02,-0.11 -0.03,-0.17l-0.09 -0.33c-0.03,-0.14 -0.08,-0.18 -0.11,-0.31l-0.17 -0.45c-0.04,-0.08 -0.03,-0.14 -0.11,-0.31l-0.12 -0.3c-0.03,-0.12 -0.09,-0.18 -0.13,-0.29l-0.96 -1.77c-0.06,-0.09 -0.11,-0.16 -0.17,-0.25l-1.39 -1.73c-0,-0 -0.01,-0.01 -0.01,-0.01 -0.28,-0.28 -0.38,-0.42 -0.72,-0.71l-0.22 -0.2c-0.19,-0.19 -0.39,-0.35 -0.61,-0.5l-0.31 -0.23c-0.09,-0.07 -0.14,-0.11 -0.24,-0.18 -0.05,-0.04 -0.07,-0.05 -0.12,-0.08 -0.02,-0.01 -0.04,-0.02 -0.06,-0.04 -0.14,-0.11 -0.28,-0.21 -0.43,-0.29l-0.73 -0.43c-0.04,-0.03 0.01,-0 -0.06,-0.04 -0.03,-0.02 -0.03,-0.02 -0.07,-0.03l-0.92 -0.44c-0.17,-0.1 -0.34,-0.14 -0.5,-0.22l-0.54 -0.2c-0.09,-0.03 -0.24,-0.05 -0.32,-0.1 -0.18,-0.1 -0.45,-0.12 -0.65,-0.19 -0.26,-0.09 -0.4,-0.08 -0.5,-0.12 -0.05,-0.02 -0.06,-0.04 -0.14,-0.06l-0.55 -0.1c-0.12,-0.02 -0.24,-0.02 -0.36,-0.06 -0.21,-0.07 -0.5,-0.07 -0.76,-0.08 -0.13,-0.01 -0.23,-0.04 -0.37,-0.05 -0.65,-0.04 -1.38,-0.04 -2.03,-0 -0.15,0.01 -0.24,0.04 -0.37,0.05 -0.24,0.02 -0.56,0 -0.75,0.07 -0.17,0.06 -0.13,0.04 -0.33,0.06 -0.15,0.02 -0.58,0.09 -0.7,0.14 -0.14,0.06 -0.35,0.06 -0.5,0.12 -0.18,0.08 -0.5,0.11 -0.64,0.18 -0.16,0.08 -0.16,0.06 -0.31,0.11l-0.3 0.12c-0.07,0.05 -0.21,0.06 -0.29,0.1l-2.32 1.19c-0.06,0.04 -0.05,0.05 -0.11,0.08l-1.15 0.83c-0.02,0.02 -0.03,0.03 -0.05,0.05l-1.28 1.2c-0.04,0.04 -0.08,0.07 -0.11,0.11 -0.28,0.27 -0.52,0.57 -0.76,0.88l-1.24 1.85c-0.03,0.06 -0.04,0.09 -0.07,0.15l-0.65 1.4c-0.05,0.17 -0.15,0.36 -0.21,0.61 -0.03,0.1 -0.02,0.07 -0.06,0.14l-0.24 0.82c-0.02,0.22 -0.14,0.54 -0.21,1.03l-0.21 1.87 -0 0z"/>
  </g>
 </g>
</svg>
